<svg width="14" height="19" viewBox="0 0 14 19" fill="none" xmlns="http://www.w3.org/2000/svg">
<path d="M6.75 18.1104C10.4782 18.1104 13.5 15.8604 13.5 11.9229C13.5 10.2354 12.9375 7.42285 10.6875 5.17285C10.9688 6.86035 9.28125 7.42285 9.28125 7.42285C10.125 4.61035 7.875 0.672852 4.5 0.110352C4.90163 2.36035 5.0625 4.61035 2.25 6.86035C0.84375 7.98535 0 9.93048 0 11.9229C0 15.8604 3.02175 18.1104 6.75 18.1104ZM6.75 16.9854C4.88588 16.9854 3.375 15.8604 3.375 13.8916C3.375 13.0479 3.65625 11.6416 4.78125 10.5166C4.64062 11.3604 5.625 11.9229 5.625 11.9229C5.20312 10.5166 6.1875 8.2666 7.875 7.98535C7.67362 9.11035 7.59375 10.2354 9 11.3604C9.70312 11.9229 10.125 12.8949 10.125 13.8916C10.125 15.8604 8.61413 16.9854 6.75 16.9854Z" fill="white"/>
</svg>
