<svg width="80" height="20" viewBox="0 0 80 20" fill="none" xmlns="http://www.w3.org/2000/svg">
<path d="M0.993563 19.5C1.35756 18.5033 1.73456 17.4547 2.12456 16.354C2.52323 15.2533 2.90456 14.209 3.26856 13.221L5.56956 6.851C5.9769 5.707 6.34956 4.67567 6.68756 3.757C7.02556 2.82967 7.36356 1.898 7.70156 0.961998H10.7956C11.1336 1.91533 11.4672 2.85133 11.7966 3.77C12.1259 4.68867 12.4942 5.72 12.9016 6.864L15.1896 13.247C15.5536 14.2697 15.9262 15.3227 16.3076 16.406C16.6976 17.4807 17.0702 18.512 17.4256 19.5H14.9816C14.6089 18.4167 14.2232 17.303 13.8246 16.159C13.4346 15.0063 13.0662 13.923 12.7196 12.909L9.33956 3.081H9.11856L5.71256 12.818C5.3399 13.8753 4.95423 14.9847 4.55556 16.146C4.1569 17.2987 3.76256 18.4167 3.37256 19.5H0.993563ZM4.42556 14.846L4.63356 13H14.0196L14.1886 14.846H4.42556ZM20.4137 19.5C20.4137 18.538 20.4137 17.615 20.4137 16.731C20.4137 15.847 20.4137 14.872 20.4137 13.806V12.506C20.4137 11.5527 20.4137 10.5777 20.4137 9.581C20.4137 8.58433 20.4137 7.592 20.4137 6.604L22.2857 6.474L22.3507 9.1H22.5717C22.9271 8.31133 23.3344 7.71767 23.7937 7.319C24.2617 6.91167 24.7341 6.63867 25.2107 6.5C25.6874 6.36133 26.1251 6.292 26.5237 6.292C26.7664 6.292 27.0091 6.30933 27.2517 6.344C27.4944 6.37867 27.7241 6.435 27.9407 6.513L27.7457 8.671C27.4597 8.619 27.1997 8.57567 26.9657 8.541C26.7404 8.50633 26.4761 8.489 26.1727 8.489C25.9214 8.489 25.6354 8.528 25.3147 8.606C25.0027 8.67533 24.6777 8.827 24.3397 9.061C24.0104 9.28633 23.6897 9.62867 23.3777 10.088C23.0657 10.5387 22.7927 11.141 22.5587 11.895V13.897C22.5587 14.911 22.5587 15.86 22.5587 16.744C22.5587 17.6193 22.5587 18.538 22.5587 19.5H20.4137ZM35.6865 19.786C34.8285 19.786 34.1005 19.6387 33.5025 19.344C32.9045 19.0407 32.4495 18.5857 32.1375 17.979C31.8342 17.3637 31.6825 16.5793 31.6825 15.626C31.6825 14.872 31.6825 14.1267 31.6825 13.39C31.6825 12.6447 31.6825 11.9167 31.6825 11.206C31.6825 10.4867 31.6825 9.79767 31.6825 9.139C31.6825 8.47167 31.6825 7.83467 31.6825 7.228C31.6825 6.344 31.6825 5.525 31.6825 4.771C31.6825 4.017 31.6825 3.23267 31.6825 2.418L33.8015 1.95C33.8015 2.59133 33.8015 3.185 33.8015 3.731C33.8015 4.277 33.8015 4.82733 33.8015 5.382C33.8015 5.93667 33.8015 6.552 33.8015 7.228V15.119C33.8015 16.0463 33.9965 16.744 34.3865 17.212C34.7852 17.68 35.3918 17.914 36.2065 17.914C36.5272 17.914 36.8782 17.862 37.2595 17.758C37.6408 17.6453 37.9788 17.472 38.2735 17.238L38.4555 19.123C38.2822 19.253 38.0482 19.37 37.7535 19.474C37.4588 19.5693 37.1338 19.643 36.7785 19.695C36.4232 19.7557 36.0592 19.786 35.6865 19.786ZM29.1995 8.307V6.604H38.3255V8.307C37.4588 8.307 36.5835 8.307 35.6995 8.307C34.8242 8.307 33.9705 8.307 33.1385 8.307H32.2545H29.1995Z" fill="black"/>
<path d="M47.4556 19.5C46.5629 19.5 45.7352 19.5 44.9726 19.5C44.2186 19.5 43.5382 19.5 42.9316 19.5C42.3336 19.5 41.8266 19.5 41.4106 19.5C41.4106 18.4773 41.4106 17.4937 41.4106 16.549C41.4106 15.6043 41.4106 14.5557 41.4106 13.403V7.15C41.4106 5.98867 41.4106 4.92267 41.4106 3.952C41.4106 2.98133 41.4106 1.98467 41.4106 0.961998C42.4159 0.961998 43.5296 0.961998 44.7516 0.961998C45.9736 0.961998 47.2172 0.961998 48.4826 0.961998C49.6266 0.961998 50.5972 1.066 51.3946 1.274C52.1919 1.47333 52.8332 1.76367 53.3186 2.145C53.8039 2.51767 54.1592 2.97267 54.3846 3.51C54.6099 4.03867 54.7226 4.63233 54.7226 5.291C54.7226 6.07967 54.5752 6.76867 54.2806 7.358C53.9946 7.94733 53.6002 8.43267 53.0976 8.814C52.6036 9.19533 52.0402 9.477 51.4076 9.659V9.932C52.0836 10.0707 52.7076 10.309 53.2796 10.647C53.8516 10.9763 54.3109 11.4443 54.6576 12.051C55.0042 12.6577 55.1776 13.429 55.1776 14.365C55.1776 15.1103 55.0519 15.7993 54.8006 16.432C54.5579 17.056 54.1462 17.5977 53.5656 18.057C52.9849 18.5163 52.1962 18.8717 51.1996 19.123C50.2029 19.3743 48.9549 19.5 47.4556 19.5ZM44.4006 17.017H47.7156C48.7382 17.017 49.5659 16.9043 50.1986 16.679C50.8312 16.445 51.2906 16.1113 51.5766 15.678C51.8712 15.2447 52.0186 14.7247 52.0186 14.118C52.0186 13.1387 51.6676 12.4323 50.9656 11.999C50.2722 11.557 49.2929 11.336 48.0276 11.336H43.7116V8.944H47.9496C48.7902 8.944 49.4749 8.814 50.0036 8.554C50.5409 8.28533 50.9352 7.93433 51.1866 7.501C51.4379 7.059 51.5636 6.57367 51.5636 6.045C51.5636 5.161 51.2862 4.50667 50.7316 4.082C50.1769 3.65733 49.3492 3.445 48.2486 3.445H44.4006C44.4006 4.13833 44.4006 4.83167 44.4006 5.525C44.4006 6.21833 44.4006 6.98533 44.4006 7.826V12.766C44.4006 13.5807 44.4006 14.326 44.4006 15.002C44.4006 15.6693 44.4006 16.341 44.4006 17.017ZM58.4111 19.5C58.4111 18.4773 58.4111 17.4937 58.4111 16.549C58.4111 15.6043 58.4111 14.5557 58.4111 13.403V7.163C58.4111 5.98433 58.4111 4.914 58.4111 3.952C58.4111 2.99 58.4111 1.99333 58.4111 0.961998H61.5181C61.5181 1.99333 61.5181 2.99 61.5181 3.952C61.5181 4.914 61.5181 5.98433 61.5181 7.163V13.403C61.5181 14.5557 61.5181 15.6043 61.5181 16.549C61.5181 17.4937 61.5181 18.4773 61.5181 19.5H58.4111ZM70.6173 19.5C70.6173 18.4773 70.6173 17.4937 70.6173 16.549C70.6173 15.6043 70.6173 14.5557 70.6173 13.403V7.618C70.6173 6.448 70.6173 5.382 70.6173 4.42C70.6173 3.44933 70.6173 2.45267 70.6173 1.43L71.8003 3.653H69.4993C68.4766 3.653 67.571 3.653 66.7823 3.653C65.9936 3.653 65.244 3.653 64.5333 3.653V0.961998H79.7303V3.653C79.0283 3.653 78.283 3.653 77.4943 3.653C76.7056 3.653 75.7956 3.653 74.7643 3.653H72.4633L73.6593 1.43C73.6593 2.45267 73.6593 3.44933 73.6593 4.42C73.6593 5.382 73.6593 6.448 73.6593 7.618V13.403C73.6593 14.5557 73.6593 15.6043 73.6593 16.549C73.6593 17.4937 73.6593 18.4773 73.6593 19.5H70.6173Z" fill="#FE3796"/>
</svg>
