<svg width="19" height="21" viewBox="0 0 19 21" fill="none" xmlns="http://www.w3.org/2000/svg">
<path d="M1.59809 15.4804C2.50968 15.4804 3.38894 15.3627 4.23587 15.1275C5.08281 14.8922 5.87156 14.5523 6.60212 14.1078C7.33268 13.6634 8.00182 13.1405 8.60955 12.5392C9.21727 11.9379 9.73771 11.2614 10.1709 10.5098C10.604 9.75817 10.937 8.95752 11.1697 8.10784C11.4025 7.25817 11.5221 6.36928 11.5286 5.44118C11.5286 4.5719 11.4187 3.71895 11.1988 2.88235C10.979 2.04575 10.659 1.25163 10.2388 0.5C11.0663 0.604575 11.8583 0.803922 12.6147 1.09804C13.3711 1.39216 14.0726 1.76797 14.7191 2.22549C15.3656 2.68301 15.9507 3.20915 16.4744 3.80392C16.9981 4.39869 17.4442 5.04902 17.8127 5.7549C18.1812 6.46078 18.4689 7.20915 18.6758 8C18.8827 8.79085 18.9829 9.61111 18.9764 10.4608C18.9764 11.3824 18.86 12.2712 18.6273 13.1275C18.3945 13.9837 18.0584 14.781 17.6187 15.5196C17.1791 16.2582 16.6619 16.9346 16.0671 17.549C15.4723 18.1634 14.8032 18.6895 14.0597 19.1275C13.3162 19.5654 12.5242 19.902 11.6837 20.1373C10.8433 20.3725 9.96399 20.4935 9.04594 20.5C8.15375 20.5 7.28419 20.3824 6.43726 20.1471C5.59032 19.9118 4.79511 19.5752 4.05162 19.1373C3.30812 18.6993 2.62282 18.1634 1.9957 17.5294C1.36858 16.8954 0.838438 16.1863 0.405273 15.402C0.605693 15.4281 0.80288 15.4477 0.996834 15.4608C1.19079 15.4739 1.39121 15.4804 1.59809 15.4804ZM9.04594 19.2451C9.84762 19.2451 10.617 19.1405 11.354 18.9314C12.091 18.7222 12.7828 18.4281 13.4293 18.049C14.0758 17.6699 14.6609 17.2124 15.1846 16.6765C15.7083 16.1405 16.1608 15.549 16.5423 14.902C16.9237 14.2549 17.2179 13.5556 17.4248 12.8039C17.6317 12.0523 17.7351 11.2712 17.7351 10.4608C17.7351 9.5719 17.6058 8.71242 17.3472 7.88235C17.0886 7.05229 16.7265 6.28105 16.261 5.56863C15.7956 4.85621 15.2266 4.22222 14.5542 3.66667C13.8819 3.11111 13.1416 2.66667 12.3335 2.33333C12.6244 3.34641 12.7699 4.38235 12.7699 5.44118C12.7699 6.39542 12.6567 7.31699 12.4304 8.20588C12.2042 9.09477 11.8809 9.93791 11.4607 10.7353C11.0404 11.5327 10.5329 12.268 9.93813 12.9412C9.34334 13.6144 8.68066 14.2092 7.9501 14.7255C7.21954 15.2418 6.43079 15.6634 5.58386 15.9902C4.73692 16.317 3.8415 16.5392 2.89759 16.6569C3.72513 17.4935 4.66257 18.134 5.70993 18.5784C6.75728 19.0229 7.86929 19.2451 9.04594 19.2451Z" fill="#0D172B"/>
</svg>
