<svg width="61" height="61" viewBox="0 0 61 61" fill="none" xmlns="http://www.w3.org/2000/svg">
<path d="M0.5 2.54004C0.5 1.43547 1.39543 0.540039 2.5 0.540039H18.9706C20.0752 0.540039 20.9706 1.43547 20.9706 2.54004V16.1871C20.9706 17.2917 20.0752 18.1871 18.9706 18.1871H2.5C1.39543 18.1871 0.5 17.2917 0.5 16.1871V2.54004Z" fill="#10B981"/>
<path d="M7.3897 46.5929C7.07576 46.5156 6.74777 46.5156 6.43382 46.5928L2.02214 47.6783C1.1283 47.8983 0.5 48.6999 0.5 49.6204V58.5399C0.5 59.6445 1.39543 60.5399 2.5 60.5399H18.9706C20.0752 60.5399 20.9706 59.6445 20.9706 58.5399V48.2463C20.9706 46.6816 19.2549 45.7229 17.9223 46.543L15.5685 47.9916C15.1122 48.2724 14.5624 48.3584 14.0422 48.2304L7.3897 46.5929Z" fill="#10B981"/>
<path d="M0.5 41.8657C0.5 43.1638 1.71738 44.1179 2.97786 43.8078L6.43385 42.9574C6.74778 42.8802 7.07575 42.8802 7.38968 42.9575L13.4505 44.4491C13.9707 44.5772 14.5204 44.4912 14.9766 44.2105L20.0187 41.1079C20.6103 40.7439 20.9706 40.0991 20.9706 39.4045V24.1869C20.9706 23.0823 20.0752 22.1869 18.9706 22.1869H2.5C1.39543 22.1869 0.5 23.0823 0.5 24.1869V41.8657ZM-nan -nanL10.7353 28.7751C12.7459 28.7751 14.3824 30.4116 14.3824 32.4222C14.3824 34.4328 12.7459 36.0692 10.7353 36.0692C8.72471 36.0692 7.08824 34.4328 7.08824 32.4222C7.08824 30.4116 8.72471 28.7751 10.7353 28.7751L-nan -nanZ" fill="#10B981"/>
<path d="M24.9707 42.0697C24.9707 40.9651 25.8661 40.0697 26.9707 40.0697H58.5001C59.6047 40.0697 60.5001 40.9651 60.5001 42.0697V58.5403C60.5001 59.6449 59.6047 60.5403 58.5001 60.5403H26.9707C25.8661 60.5403 24.9707 59.6449 24.9707 58.5403V42.0697Z" fill="#10B981"/>
<path d="M42.7361 20.305C44.3605 20.305 45.6773 18.9882 45.6773 17.3638C45.6773 15.7394 44.3605 14.4226 42.7361 14.4226C41.1117 14.4226 39.7949 15.7394 39.7949 17.3638C39.7949 18.9882 41.1117 20.305 42.7361 20.305Z" fill="#10B981"/>
<path d="M26.9707 0.540039C25.8661 0.540039 24.9707 1.43547 24.9707 2.54004V34.0695C24.9707 35.174 25.8661 36.0695 26.9707 36.0695H31.4413C32.5459 36.0695 33.4413 35.174 33.4413 34.0695V28.8977C33.4413 26.5684 34.3727 24.453 35.8828 22.9036C36.7434 22.0207 36.9842 20.5866 36.5907 19.4182C35.2631 15.4757 38.1005 10.893 42.7354 10.893C47.3732 10.893 50.206 15.4772 48.8798 19.418C48.4865 20.5866 48.7275 22.0207 49.588 22.9036C51.0981 24.453 52.0295 26.5684 52.0295 28.8977V34.0695C52.0295 35.174 52.925 36.0695 54.0295 36.0695H58.5001C59.6047 36.0695 60.5001 35.174 60.5001 34.0695V2.54004C60.5001 1.43547 59.6047 0.540039 58.5001 0.540039H26.9707Z" fill="#10B981"/>
<path d="M36.9707 28.8975V36.0693H48.5001V28.8975C48.5001 26.1057 46.2284 23.834 43.4366 23.834H42.0342C39.2425 23.834 36.9707 26.1057 36.9707 28.8975Z" fill="#10B981"/>
</svg>
