<svg width="18" height="17" viewBox="0 0 18 17" fill="none" xmlns="http://www.w3.org/2000/svg">
<path d="M6.28711 14.584C6.28711 15.4227 6.96943 16.105 7.80811 16.105C8.64679 16.105 9.32911 15.4227 9.32911 14.584C9.32911 13.7453 8.64679 13.063 7.80811 13.063C6.96943 13.063 6.28711 13.7453 6.28711 14.584ZM7.80811 14.077C8.08767 14.077 8.31511 14.3044 8.31511 14.584C8.31511 14.8635 8.08767 15.091 7.80811 15.091C7.52855 15.091 7.30111 14.8635 7.30111 14.584C7.30111 14.3044 7.52855 14.077 7.80811 14.077Z" fill="#0D172B"/>
<path d="M11.3906 14.584C11.3906 15.4227 12.0729 16.105 12.9116 16.105C13.7503 16.105 14.4326 15.4227 14.4326 14.584C14.4326 13.7453 13.7503 13.063 12.9116 13.063C12.0729 13.063 11.3906 13.7453 11.3906 14.584ZM12.9116 14.077C13.1912 14.077 13.4186 14.3044 13.4186 14.584C13.4186 14.8635 13.1912 15.091 12.9116 15.091C12.6321 15.091 12.4046 14.8635 12.4046 14.584C12.4046 14.3044 12.6321 14.077 12.9116 14.077Z" fill="#0D172B"/>
<path d="M16.9676 2.92302H4.13426C3.96067 2.31533 3.7989 1.74911 3.65995 1.26276C3.59779 1.04509 3.39881 0.89502 3.17245 0.89502H0.675946C0.395946 0.89502 0.168945 1.12202 0.168945 1.40202C0.168945 1.68202 0.395946 1.90902 0.675946 1.90902H2.79C3.35696 3.89362 4.6824 8.53278 5.23807 10.4777L5.04599 10.8618C4.53983 11.8742 5.27698 13.063 6.40644 13.063H14.9396C15.2196 13.063 15.4466 12.836 15.4466 12.556C15.4466 12.276 15.2196 12.049 14.9396 12.049H6.40644C6.02936 12.049 5.78448 11.6523 5.95294 11.3153L6.09308 11.035H14.9396C15.1659 11.035 15.3649 10.885 15.4271 10.6673L17.4551 3.56931C17.5474 3.24601 17.3045 2.92302 16.9676 2.92302V2.92302ZM14.5571 10.021H6.1622C5.88595 9.05411 5.11281 6.34815 4.42396 3.93702H16.2954L14.5571 10.021Z" fill="#0D172B"/>
</svg>
