<svg width="61" height="61" viewBox="0 0 61 61" fill="none" xmlns="http://www.w3.org/2000/svg">
<path d="M24.9915 9.65078C24.9915 6.41992 27.62 3.79141 30.8509 3.79141H32.8787L32.267 2.09102C31.923 1.13477 31.0219 0.540039 30.0614 0.540039C29.7953 0.540039 29.5246 0.585742 29.26 0.68207L8.76937 8.14C7.55121 8.58344 6.92426 9.93145 7.37027 11.1487L8.45297 14.1039H24.9915V9.65078Z" fill="#8358FF"/>
<path d="M30.8516 7.30701C29.5571 7.30701 28.5078 8.3563 28.5078 9.65076V14.1039H49.0156V9.65076C49.0156 8.3563 47.9663 7.30701 46.6719 7.30701H30.8516Z" fill="#8358FF"/>
<path d="M55.2266 47.9125H47.0234C42.1771 47.9125 38.2344 43.9697 38.2344 39.1234C38.2344 34.2771 42.1771 30.3344 47.0234 30.3344H55.2266V22.307C55.2266 19.7182 53.1279 17.6195 50.5391 17.6195H5.1875C2.59871 17.6195 0.5 19.7182 0.5 22.307V55.8525C0.5 58.4413 2.59871 60.54 5.1875 60.54H50.5391C53.1279 60.54 55.2266 58.4413 55.2266 55.8525V47.9125Z" fill="#8358FF"/>
<path d="M58.7422 33.85H47.0234C44.1157 33.85 41.75 36.2156 41.75 39.1234C41.75 42.0312 44.1157 44.3969 47.0234 44.3969H58.7422C59.7114 44.3969 60.5 43.6083 60.5 42.639V35.6078C60.5 34.6385 59.7114 33.85 58.7422 33.85ZM47.0234 40.8812C46.0527 40.8812 45.2656 40.0942 45.2656 39.1234C45.2656 38.1526 46.0527 37.3656 47.0234 37.3656C47.9942 37.3656 48.7812 38.1526 48.7812 39.1234C48.7812 40.0942 47.9942 40.8812 47.0234 40.8812Z" fill="#8358FF"/>
</svg>
